<svg width="71" height="23" viewBox="0 0 71 23" fill="none" xmlns="http://www.w3.org/2000/svg">
<path fill-rule="evenodd" clip-rule="evenodd" d="M23.456 0.639999C22.7307 0.682666 22.208 0.767999 21.888 0.896C21.568 1.024 21.344 1.26933 21.216 1.632C21.1093 1.99467 21.056 2.58133 21.056 3.392V19.264C21.056 20.0747 21.1093 20.6613 21.216 21.024C21.344 21.3867 21.568 21.632 21.888 21.76C22.208 21.888 22.7307 21.9733 23.456 22.016V22.656C22.4107 22.592 20.7893 22.56 18.592 22.56C16.4373 22.56 14.7627 22.592 13.568 22.656V22.016C14.272 21.9733 14.784 21.888 15.104 21.76C15.4453 21.632 15.6693 21.3867 15.776 21.024C15.904 20.6613 15.968 20.0747 15.968 19.264V11.584H7.488V19.264C7.488 20.0747 7.54133 20.6613 7.648 21.024C7.776 21.3867 8 21.632 8.32 21.76C8.64 21.888 9.16267 21.9733 9.888 22.016V22.656C8.736 22.592 7.12533 22.56 5.056 22.56C2.77333 22.56 1.088 22.592 0 22.656V22.016C0.704 21.9733 1.216 21.888 1.536 21.76C1.87733 21.632 2.10133 21.3867 2.208 21.024C2.336 20.6613 2.4 20.0747 2.4 19.264V3.392C2.4 2.58133 2.336 1.99467 2.208 1.632C2.10133 1.26933 1.87733 1.024 1.536 0.896C1.216 0.767999 0.704 0.682666 0 0.639999V0C1.088 0.0639992 2.77333 0.0959988 5.056 0.0959988C7.12533 0.0959988 8.736 0.0639992 9.888 0V0.639999C9.16267 0.682666 8.64 0.767999 8.32 0.896C8 1.024 7.776 1.26933 7.648 1.632C7.54133 1.99467 7.488 2.58133 7.488 3.392V10.944H15.968V3.392C15.968 2.58133 15.904 1.99467 15.776 1.632C15.6693 1.26933 15.4453 1.024 15.104 0.896C14.784 0.767999 14.272 0.682666 13.568 0.639999V0C14.7627 0.0639992 16.4373 0.0959988 18.592 0.0959988C20.7893 0.0959988 22.4107 0.0639992 23.456 0V0.639999ZM70.4562 0C70.3068 2.02667 70.2322 3.84 70.2322 5.44C70.2322 6.44267 70.2642 7.25333 70.3282 7.872H69.5922C69.0802 5.248 68.3762 3.40267 67.4802 2.336C66.6055 1.26933 65.4002 0.735998 63.8642 0.735998H63.1282V19.008C63.1282 19.904 63.2135 20.5547 63.3842 20.96C63.5762 21.3653 63.8962 21.6427 64.3442 21.792C64.8135 21.92 65.5495 21.9947 66.5522 22.016V22.656C63.8642 22.592 61.8375 22.56 60.4722 22.56C59.1282 22.56 57.1762 22.592 54.6162 22.656V22.016C55.6188 21.9947 56.3442 21.92 56.7922 21.792C57.2615 21.6427 57.5815 21.3653 57.7522 20.96C57.9442 20.5547 58.0402 19.904 58.0402 19.008V0.735998H57.3362C56.3122 0.735998 55.4375 0.959998 54.7122 1.408C54.0082 1.856 53.4002 2.60267 52.8882 3.648C52.3762 4.672 51.9388 6.08 51.5762 7.872H50.8402C50.9042 7.25333 50.9362 6.44267 50.9362 5.44C50.9362 3.84 50.8615 2.02667 50.7122 0C52.6535 0.0639992 55.9495 0.0959988 60.6002 0.0959988C65.2508 0.0959988 68.5362 0.0639992 70.4562 0ZM44.9121 9.65601H28.9121V12.656H44.9121V9.65601Z" fill="#222222"/>
</svg>
